<svg xmlns="http://www.w3.org/2000/svg" viewBox="0 0 1000 1000">
   <defs>
      <filter id="noise" x="-20%" y="-20%" width="140%" height="140%" filterUnits="objectBoundingBox" primitiveUnits="userSpaceOnUse">
         <feTurbulence type="fractalNoise" baseFrequency="0.1" numOctaves="1" seed="2" stitchTiles="noStitch" result="turbulence" />
         <feDisplacementMap in="SourceGraphic" in2="turbulence" scale="20" xChannelSelector="G" yChannelSelector="A" result="displacementMap" />
      </filter>
      <mask id="mask">
         <path fill="#000" d="M 0,0 1000,0 1000,1000 0,1000z" />
         <path fill="#fff" d="M 500,0 C 850,0 1000,150 1000,500 C 1000,850 850,1000 500,1000 C 150,1000 0,850 0,500 C 0,150 150,0 500,0z" />
      </mask>
   </defs>
   <path fill="#000" d="M 500,0 C 850,0 1000,150 1000,500 C 1000,850 850,1000 500,1000 C 150,1000 0,850 0,500 C 0,150 150,0 500,0z" />
   <path filter="url(#noise)" fill="hsl(150,100%,60%)" d="M 300,500 Q 350,500 350,550 Q 350,600 300,600 Q 250,600 250,550 Q 250,500 300,500z" />
   <path filter="url(#noise)" fill="hsl(150,100%,60%)" d="M 800,375 Q 837.5,375 837.5,412.5 Q 837.5,450 800,450 Q 762.5,450 762.5,412.5 Q 762.5,375 800,375z" />
   <path filter="url(#noise)" fill="hsl(150,100%,60%)" d="M 750,175 Q 825,175 825,250 Q 825,325 750,325 Q 675,325 675,250 Q 675,175 750,175z" />
   <path filter="url(#noise)" fill="hsl(150,100%,60%)" d="M 750,850 Q 750,900 800,900 Q 850,900 850,850 L 850,750 Q 850,700 800,700 Q 750,700 750,750 L 750,850z" />
   <path filter="url(#noise)" fill="hsl(150,100%,60%)" d="M 150,775 Q 150,825 200,825 Q 250,825 250,775 L 250,700 Q 250,650 200,650 Q 150,650 150,700 L 150,775z" />
   <path mask="url(#mask)" fill="#fff" stroke="#fff" stroke-width="30" stroke-linejoin="round" d="M 300,1000 200,1000 200,850 Q 275,850 275,775 L 275,700 Q 275,625 200,625 L 200,200 300,200 500,500 650,275 Q 650,350 750,350 L 800,350 Q 737.5,350 737.5,412.5 Q 737.5,475 800,475 L800,675 Q 725,675 725,750 L 725,850 Q 725,925 800,925 L 800,1000 700,1000 700,400 500,700 300,400 300,475 Q 225,475 225,550 Q 225,625 300,625 L 300,1000z" />
</svg>
